<svg xmlns="http://www.w3.org/2000/svg" xmlns:xlink="http://www.w3.org/1999/xlink" xmlns:sketch="http://www.bohemiancoding.com/sketch/ns" viewBox="0 0 30 37.5" version="1.1" x="0px" y="0px"><title>action_103-carousel-view-layout-slide-cover-flow</title><desc>Created with Sketch.</desc><g stroke="none" stroke-width="1" fill="none" fill-rule="evenodd" sketch:type="MSPage"><g sketch:type="MSArtboardGroup" transform="translate(-135.000000, -495.000000)" fill="#000000"><path d="M143,501.5 L143,518.5 C143,518.776142 143.223858,519 143.5,519 L156.5,519 C156.776142,519 157,518.776142 157,518.5 L157,501.5 C157,501.223858 156.776142,501 156.5,501 L143.5,501 C143.223858,501 143,501.223858 143,501.5 Z M137,517.5 C137,517.776142 137.223858,518 137.5,518 C137.776142,518 138,517.776142 138,517.5 L138,502.5 C138,502.223858 137.776142,502 137.5,502 C137.223858,502 137,502.223858 137,502.5 L137,517.5 Z M162,517.5 C162,517.776142 162.223858,518 162.5,518 C162.776142,518 163,517.776142 163,517.5 L163,502.5 C163,502.223858 162.776142,502 162.5,502 C162.223858,502 162,502.223858 162,502.5 L162,517.5 Z M142,516.5 L139.723497,517.947214 C139.391047,518.113439 138.99989,517.871691 138.99989,517.5 L138.99989,502.5 C138.99989,502.128309 139.391047,501.886561 139.723497,502.052786 L142,503.5 L142,516.5 Z M157.99989,516.5 L160.276393,517.947214 C160.608844,518.113439 161,517.871691 161,517.5 L161,502.5 C161,502.128309 160.608844,501.886561 160.276393,502.052786 L157.99989,503.5 L157.99989,516.5 Z" sketch:type="MSShapeGroup"/></g></g><text x="0" y="45" fill="#000000" font-size="5px" font-weight="bold" font-family="'Helvetica Neue', Helvetica, Arial-Unicode, Arial, Sans-serif">Created by Pham Thi Dieu Linh</text><text x="0" y="50" fill="#000000" font-size="5px" font-weight="bold" font-family="'Helvetica Neue', Helvetica, Arial-Unicode, Arial, Sans-serif">from the Noun Project</text></svg>